<?xml version="1.0" encoding="UTF-8"?>
<!DOCTYPE svg PUBLIC "-//W3C//DTD SVG 1.1//EN" "http://www.w3.org/Graphics/SVG/1.1/DTD/svg11.dtd">
<svg xmlns="http://www.w3.org/2000/svg" version="1.1" width="476px" height="476px" style="shape-rendering:geometricPrecision; text-rendering:geometricPrecision; image-rendering:optimizeQuality; fill-rule:evenodd; clip-rule:evenodd" xmlns:xlink="http://www.w3.org/1999/xlink">
<g><path style="opacity:0.99" fill="#1c1c1c" d="M 234.5,-0.5 C 236.5,-0.5 238.5,-0.5 240.5,-0.5C 331.098,4.03172 399.598,45.0317 446,122.5C 462.864,154.244 472.697,187.91 475.5,223.5C 475.5,233.167 475.5,242.833 475.5,252.5C 466.729,342.919 422.395,409.419 342.5,452C 316.013,464.446 288.347,472.279 259.5,475.5C 244.833,475.5 230.167,475.5 215.5,475.5C 124.195,463.774 58.695,416.44 19,333.5C 8.39132,308.399 1.89132,282.399 -0.5,255.5C -0.5,243.833 -0.5,232.167 -0.5,220.5C 8.64632,135 50.313,70.8338 124.5,28C 159.105,10.0166 195.771,0.516564 234.5,-0.5 Z"/></g>
<g><path style="opacity:1" fill="#f2c71f" d="M 217.5,31.5 C 303.403,27.1986 369.569,60.8653 416,132.5C 432.279,159.948 441.279,189.615 443,221.5C 442.167,223.667 440.667,225.167 438.5,226C 407.833,226.667 377.167,226.667 346.5,226C 344.951,224.786 343.785,223.286 343,221.5C 335.64,183.629 314.473,156.462 279.5,140C 232.411,123.147 191.578,132.647 157,168.5C 126.719,207.85 123.386,249.516 147,293.5C 175.357,334.736 214.191,350.57 263.5,341C 300.744,330.96 325.911,307.793 339,271.5C 340.167,270.333 341.333,269.167 342.5,268C 373.5,267.333 404.5,267.333 435.5,268C 437.286,268.785 438.786,269.951 440,271.5C 440.551,276.545 440.218,281.545 439,286.5C 418.049,362.785 369.882,412.952 294.5,437C 212.623,456.829 142.457,436.662 84,376.5C 35.3311,319.141 20.3311,253.808 39,180.5C 61.6713,110.495 107.838,63.6621 177.5,40C 190.77,36.181 204.104,33.3477 217.5,31.5 Z"/></g>
<g><path style="opacity:1" fill="#1d1c1c" d="M 232.5,53.5 C 242.172,53.3335 251.839,53.5002 261.5,54C 272.677,58.5202 276.844,66.6868 274,78.5C 271.762,85.0701 267.262,89.2367 260.5,91C 256.179,91.499 251.846,91.6657 247.5,91.5C 247.666,97.5092 247.499,103.509 247,109.5C 242.263,110.469 237.43,110.803 232.5,110.5C 232.5,91.5 232.5,72.5 232.5,53.5 Z"/></g>
<g><path style="opacity:1" fill="#1d1d1c" d="M 201.5,89.5 C 201.44,88.9569 201.107,88.6236 200.5,88.5C 199.502,97.1411 199.169,105.808 199.5,114.5C 199.714,116.144 199.38,117.644 198.5,119C 194.985,120.843 191.318,121.843 187.5,122C 181.333,115.167 175.167,108.333 169,101.5C 171.208,109.786 174.041,117.953 177.5,126C 173.54,128.228 169.373,130.062 165,131.5C 157.31,114.615 150.477,97.2814 144.5,79.5C 145.885,77.2946 147.885,75.7946 150.5,75C 154.314,73.0859 158.314,72.4192 162.5,73C 170.011,81.3437 177.678,89.5104 185.5,97.5C 186.333,85.8476 186.833,74.1809 187,62.5C 192.171,59.9175 197.504,57.5842 203,55.5C 203.772,55.6448 204.439,55.9781 205,56.5C 211.361,73.2479 217.528,90.0813 223.5,107C 223.415,108.107 223.081,109.107 222.5,110C 218.793,111.402 215.126,112.902 211.5,114.5C 207.778,106.336 204.445,98.0026 201.5,89.5 Z"/></g>
<g><path style="opacity:1" fill="#f1c71f" d="M 248.5,66.5 C 252.584,66.0431 256.417,66.7098 260,68.5C 260.667,70.8333 260.667,73.1667 260,75.5C 259.292,76.3805 258.458,77.0472 257.5,77.5C 254.5,77.5 251.5,77.5 248.5,77.5C 248.5,73.8333 248.5,70.1667 248.5,66.5 Z"/></g>
<g><path style="opacity:1" fill="#1f1e1c" d="M 301.5,67.5 C 324.883,67.0554 337.05,78.3887 338,101.5C 333.629,120.427 321.795,129.261 302.5,128C 279.428,120.029 272.595,104.862 282,82.5C 286.645,75.0135 293.145,70.0135 301.5,67.5 Z"/></g>
<g><path style="opacity:1" fill="#9d841e" d="M 248.5,66.5 C 248.5,70.1667 248.5,73.8333 248.5,77.5C 251.5,77.5 254.5,77.5 257.5,77.5C 254.375,78.4794 251.042,78.8128 247.5,78.5C 247.183,74.2984 247.517,70.2984 248.5,66.5 Z"/></g>
<g><path style="opacity:1" fill="#efc51f" d="M 304.5,82.5 C 317.522,82.3517 323.356,88.685 322,101.5C 317.24,112.624 309.407,115.458 298.5,110C 289.983,98.6884 291.983,89.5217 304.5,82.5 Z"/></g>
<g><path style="opacity:1" fill="#77651e" d="M 201.5,89.5 C 200.833,97.8333 200.167,106.167 199.5,114.5C 199.169,105.808 199.502,97.1411 200.5,88.5C 201.107,88.6236 201.44,88.9569 201.5,89.5 Z"/></g>
<g><path style="opacity:1" fill="#1f1e1c" d="M 118.5,104.5 C 142.345,105.507 153.845,117.84 153,141.5C 146.356,160.481 133.19,167.981 113.5,164C 98.7757,157.619 91.9424,146.452 93,130.5C 96.3819,116.681 104.882,108.014 118.5,104.5 Z"/></g>
<g><path style="opacity:1" fill="#1f1e1c" d="M 359.5,112.5 C 376.376,113.581 384.543,122.581 384,139.5C 383.133,143.659 380.967,146.493 377.5,148C 375,145.5 372.5,143 370,140.5C 371.62,135.265 370.454,130.765 366.5,127C 360.92,125.739 359.087,127.906 361,133.5C 367.772,142.716 368.105,152.05 362,161.5C 348.606,169.927 337.939,167.26 330,153.5C 324.832,144.355 325.666,135.855 332.5,128C 333.635,127.251 334.635,127.417 335.5,128.5C 337.592,131.681 339.925,134.681 342.5,137.5C 339.453,143.096 340.453,147.929 345.5,152C 350.59,152.829 352.424,150.662 351,145.5C 344.176,136.3 343.843,126.967 350,117.5C 352.907,115.132 356.074,113.465 359.5,112.5 Z"/></g>
<g><path style="opacity:1" fill="#f1c71f" d="M 118.5,120.5 C 126.856,119.762 133.023,123.095 137,130.5C 138.854,144.646 132.688,150.812 118.5,149C 108.389,143.961 105.889,136.461 111,126.5C 113.114,123.879 115.614,121.879 118.5,120.5 Z"/></g>
<g><path style="opacity:1" fill="#1e1e1c" d="M 400.5,157.5 C 401.496,157.414 402.329,157.748 403,158.5C 407.36,169.244 411.526,180.077 415.5,191C 415.355,191.772 415.022,192.439 414.5,193C 410.284,194.684 405.951,195.851 401.5,196.5C 399.793,189.366 397.127,182.699 393.5,176.5C 391.453,177.185 389.786,178.351 388.5,180C 390.299,185.731 392.299,191.398 394.5,197C 391.532,199.223 388.198,200.89 384.5,202C 383.365,202.749 382.365,202.583 381.5,201.5C 379.5,196.167 377.5,190.833 375.5,185.5C 373.229,184.637 370.895,184.637 368.5,185.5C 370.225,192.675 372.558,199.675 375.5,206.5C 371.697,208.671 367.697,210.671 363.5,212.5C 362.914,212.291 362.414,211.957 362,211.5C 357.804,201.245 353.804,190.912 350,180.5C 349.219,179.056 349.386,177.723 350.5,176.5C 367.408,170.455 384.075,164.121 400.5,157.5 Z"/></g>
<g><path style="opacity:1" fill="#1f1e1c" d="M 82.5,161.5 C 85.5184,161.335 88.5184,161.502 91.5,162C 92.0219,162.561 92.3552,163.228 92.5,164C 90.6667,168.167 88.8333,172.333 87,176.5C 76.6432,179.207 72.3099,185.874 74,196.5C 78.0379,205.436 84.8713,208.936 94.5,207C 101.312,204.389 104.645,199.389 104.5,192C 103.204,187.917 102.704,183.751 103,179.5C 104.504,176.316 106.004,173.149 107.5,170C 110.28,169.731 112.446,170.898 114,173.5C 124.475,191.081 121.642,206.248 105.5,219C 88.7648,227.107 74.5982,223.94 63,209.5C 53.7504,187.009 60.2504,171.009 82.5,161.5 Z"/></g>
<g><path style="opacity:1" fill="#f2c81f" d="M 297.5,170.5 C 304.409,171.004 307.576,174.671 307,181.5C 293.177,209.149 278.843,236.482 264,263.5C 259.418,267.545 254.251,270.711 248.5,273C 225.167,283.667 201.833,294.333 178.5,305C 171.034,304.859 167.867,301.026 169,293.5C 182.078,267.011 195.411,240.678 209,214.5C 212.715,209.452 217.548,205.952 223.5,204C 248.376,193.058 273.042,181.891 297.5,170.5 Z"/></g>
<g><path style="opacity:1" fill="#1e1d1c" d="M 236.5,223.5 C 253.419,224.68 256.919,232.346 247,246.5C 241.817,251.56 235.651,253.393 228.5,252C 223.15,248.629 221.317,243.796 223,237.5C 225.687,230.981 230.187,226.314 236.5,223.5 Z"/></g>
<g><path style="opacity:1" fill="#1e1e1c" d="M 350.5,299.5 C 355.464,300.963 359.464,303.796 362.5,308C 358.71,313.96 354.71,319.793 350.5,325.5C 351.981,326.48 353.315,327.647 354.5,329C 355.449,329.617 356.282,329.451 357,328.5C 360.31,323.527 363.977,318.86 368,314.5C 371.971,316.566 375.471,319.233 378.5,322.5C 374.589,327.322 370.922,332.322 367.5,337.5C 368.921,340.343 370.921,341.676 373.5,341.5C 377.312,335.512 381.812,330.179 387,325.5C 390.94,327.608 394.44,330.275 397.5,333.5C 390.378,342.911 383.378,352.411 376.5,362C 374.212,362.418 372.212,361.751 370.5,360C 356.667,349.661 343,339.161 329.5,328.5C 336.937,319.076 343.937,309.41 350.5,299.5 Z"/></g>
<g><path style="opacity:1" fill="#1f1e1c" d="M 108.5,305.5 C 132.171,304.01 144.005,315.01 144,338.5C 143.197,341.244 142.197,343.911 141,346.5C 140.439,347.022 139.772,347.355 139,347.5C 135.714,345.218 132.714,342.551 130,339.5C 131.036,326.545 125.202,320.045 112.5,320C 101.274,324.285 97.4404,332.118 101,343.5C 105.729,349.445 111.895,351.945 119.5,351C 121.667,353.167 123.833,355.333 126,357.5C 126.72,359.112 126.554,360.612 125.5,362C 106.51,368.922 93.0097,363.089 85,344.5C 83.1257,325.573 90.9591,312.573 108.5,305.5 Z"/></g>
<g><path style="opacity:1" fill="#1e1d1c" d="M 321.5,335.5 C 322.675,335.281 323.675,335.614 324.5,336.5C 326.713,339.543 328.713,342.71 330.5,346C 326.12,350.361 321.12,354.028 315.5,357C 312.816,359.983 313.316,362.483 317,364.5C 322.485,361.423 327.818,358.09 333,354.5C 335.994,357.82 338.494,361.487 340.5,365.5C 335.283,369.031 330.116,372.698 325,376.5C 324.838,379.166 326.005,381.166 328.5,382.5C 334.5,378.833 340.5,375.167 346.5,371.5C 349.399,374.952 352.066,378.618 354.5,382.5C 344.751,389.738 334.585,396.405 324,402.5C 322.739,402.241 321.739,401.574 321,400.5C 311.302,385.634 301.802,370.634 292.5,355.5C 302.022,348.577 311.688,341.91 321.5,335.5 Z"/></g>
<g><path style="opacity:1" fill="#1d1d1c" d="M 157.5,346.5 C 174.032,344.346 185.866,350.679 193,365.5C 197.44,383.782 191.273,396.948 174.5,405C 161.423,408.388 150.256,405.221 141,395.5C 130.848,379.462 132.682,364.962 146.5,352C 149.99,349.588 153.657,347.755 157.5,346.5 Z"/></g>
<g><path style="opacity:1" fill="#1e1d1c" d="M 280.5,358.5 C 282.467,358.261 284.301,358.594 286,359.5C 287.822,363.747 288.322,368.081 287.5,372.5C 280.898,374.15 274.231,375.484 267.5,376.5C 267.337,378.857 267.503,381.19 268,383.5C 268.388,384.428 269.055,385.095 270,385.5C 276.148,383.933 282.314,382.6 288.5,381.5C 289.826,385.791 290.659,390.124 291,394.5C 284.987,396.42 278.82,397.753 272.5,398.5C 273.337,405.518 274.337,412.518 275.5,419.5C 271.29,420.261 267.123,421.261 263,422.5C 262.228,422.355 261.561,422.022 261,421.5C 257.293,403.967 253.46,386.467 249.5,369C 249.585,367.893 249.919,366.893 250.5,366C 260.805,364.179 270.805,361.679 280.5,358.5 Z"/></g>
<g><path style="opacity:1" fill="#efc51f" d="M 159.5,362.5 C 176.684,362.217 181.851,369.884 175,385.5C 165.075,393.34 157.075,391.673 151,380.5C 150.34,372.821 153.173,366.821 159.5,362.5 Z"/></g>
<g><path style="opacity:1" fill="#1f1e1c" d="M 204.5,362.5 C 216.443,364.317 228.443,365.817 240.5,367C 241.237,371.754 241.237,376.588 240.5,381.5C 232.838,380.6 225.171,380.1 217.5,380C 216.565,382.381 216.232,384.881 216.5,387.5C 222.848,388.15 229.182,388.983 235.5,390C 236.059,390.725 236.392,391.558 236.5,392.5C 235.724,396.159 235.057,399.825 234.5,403.5C 227.776,403.326 221.109,402.659 214.5,401.5C 213.93,407.861 213.097,414.195 212,420.5C 207.276,421.59 202.61,421.257 198,419.5C 198.934,400.34 201.1,381.34 204.5,362.5 Z"/></g>
</svg>
