<?xml version="1.0" encoding="UTF-8"?>
<!DOCTYPE svg PUBLIC "-//W3C//DTD SVG 1.1//EN" "http://www.w3.org/Graphics/SVG/1.1/DTD/svg11.dtd">
<svg xmlns="http://www.w3.org/2000/svg" version="1.1" width="225px" height="224px" style="shape-rendering:geometricPrecision; text-rendering:geometricPrecision; image-rendering:optimizeQuality; fill-rule:evenodd; clip-rule:evenodd" xmlns:xlink="http://www.w3.org/1999/xlink">
<g><path style="opacity:1" fill="#fdfdfd" d="M -0.5,-0.5 C 74.5,-0.5 149.5,-0.5 224.5,-0.5C 224.5,74.1667 224.5,148.833 224.5,223.5C 149.5,223.5 74.5,223.5 -0.5,223.5C -0.5,148.833 -0.5,74.1667 -0.5,-0.5 Z"/></g>
<g><path style="opacity:1" fill="#3d3d40" d="M 102.5,2.5 C 159.039,1.83234 197.206,27.8323 217,80.5C 228.064,125.295 216.898,163.462 183.5,195C 142.735,226.289 99.7349,229.623 54.5,205C 11.5208,174.504 -4.31249,133.337 7,81.5C 23.0528,35.9361 54.8861,9.60278 102.5,2.5 Z"/></g>
<g><path style="opacity:1" fill="#f8f8f8" d="M 100.5,5.5 C 144.631,2.98225 178.797,19.9822 203,56.5C 225.589,98.2957 223.256,138.629 196,177.5C 167.977,210.732 132.477,223.565 89.5,216C 36.623,200.789 8.62305,165.623 5.5,110.5C 8.7625,64.7616 31.0958,32.2616 72.5,13C 81.7155,9.53176 91.0488,7.03176 100.5,5.5 Z"/></g>
<g><path style="opacity:1" fill="#3d3e41" d="M 138.5,50.5 C 129.319,43.0648 128.153,34.3981 135,24.5C 144.765,16.8813 153.099,18.2147 160,28.5C 161.943,45.0557 154.776,52.389 138.5,50.5 Z"/></g>
<g><path style="opacity:1" fill="#f9f9f9" d="M 144.5,24.5 C 150.894,23.8504 154.227,26.6837 154.5,33C 154.341,40.1533 150.841,44.6533 144,46.5C 138.791,45.7886 136.291,42.7886 136.5,37.5C 136.895,31.6987 139.562,27.3654 144.5,24.5 Z"/></g>
<g><path style="opacity:1" fill="#3d3d41" d="M 92.5,28.5 C 92.2172,27.7109 91.7172,27.0442 91,26.5C 90.5004,33.1583 90.3337,39.825 90.5,46.5C 89.5041,46.4142 88.6708,46.7476 88,47.5C 84,42.8333 80,38.1667 76,33.5C 76.6962,37.1141 77.5296,40.7807 78.5,44.5C 81.4701,44.7458 82.8034,46.4124 82.5,49.5C 79.9333,49.8545 77.4333,50.5212 75,51.5C 71.9494,49.7345 71.7827,47.7345 74.5,45.5C 72.164,39.4904 69.8306,33.4904 67.5,27.5C 65.7162,28.3401 64.7162,27.5068 64.5,25C 64.6448,24.228 64.9781,23.5613 65.5,23C 67.8713,22.2652 70.2046,21.4318 72.5,20.5C 77.1777,25.1793 81.511,30.1793 85.5,35.5C 86.4967,28.8665 86.83,22.1998 86.5,15.5C 89.7893,14.6261 93.1226,13.9595 96.5,13.5C 96.33,14.8221 96.6634,15.9887 97.5,17C 96.4844,17.5194 95.8178,18.3527 95.5,19.5C 97.385,25.603 99.5516,31.603 102,37.5C 103.113,36.2889 104.28,36.2889 105.5,37.5C 107.737,29.0997 107.737,20.7663 105.5,12.5C 112.234,12.894 118.901,13.7273 125.5,15C 130.436,19.3437 130.769,24.0104 126.5,29C 122.078,31.1036 117.412,31.9369 112.5,31.5C 112.631,35.285 113.298,38.9517 114.5,42.5C 108.002,42.249 101.669,42.749 95.5,44C 94.3078,42.0548 94.3078,40.0548 95.5,38C 94.3928,34.8462 93.3928,31.6795 92.5,28.5 Z"/></g>
<g><path style="opacity:1" fill="#f5f5f5" d="M 113.5,18.5 C 116.187,18.3359 118.854,18.5026 121.5,19C 124.167,21.3333 124.167,23.6667 121.5,26C 118.854,26.4974 116.187,26.6641 113.5,26.5C 113.5,23.8333 113.5,21.1667 113.5,18.5 Z"/></g>
<g><path style="opacity:1" fill="#929293" d="M 92.5,28.5 C 91.8333,34.5 91.1667,40.5 90.5,46.5C 90.3337,39.825 90.5004,33.1583 91,26.5C 91.7172,27.0442 92.2172,27.7109 92.5,28.5 Z"/></g>
<g><path style="opacity:1" fill="#3d3d41" d="M 49.5,34.5 C 65.4309,34.9249 71.9309,42.9249 69,58.5C 61.3179,67.0467 52.9846,67.7134 44,60.5C 36.6118,49.7554 38.4451,41.0887 49.5,34.5 Z"/></g>
<g><path style="opacity:1" fill="#f9f9f9" d="M 50.5,39.5 C 60.4593,40.9489 64.9593,46.6156 64,56.5C 60.1229,61.2801 55.6229,61.7801 50.5,58C 42.7961,51.5283 42.7961,45.3616 50.5,39.5 Z"/></g>
<g><path style="opacity:1" fill="#49494c" d="M 98.5,46.5 C 99.8333,46.5 101.167,46.5 102.5,46.5C 102.5,47.5 102.5,48.5 102.5,49.5C 101.167,49.5 99.8333,49.5 98.5,49.5C 98.5,48.5 98.5,47.5 98.5,46.5 Z"/></g>
<g><path style="opacity:1" fill="#303034" d="M 106.5,46.5 C 107.675,46.281 108.675,46.6143 109.5,47.5C 107.948,48.7979 106.948,48.4646 106.5,46.5 Z"/></g>
<g><path style="opacity:1" fill="#333337" d="M 114.5,46.5 C 115.675,46.281 116.675,46.6143 117.5,47.5C 115.948,48.7979 114.948,48.4646 114.5,46.5 Z"/></g>
<g><path style="opacity:1" fill="#535356" d="M 121.5,46.5 C 122.833,46.5 124.167,46.5 125.5,46.5C 125.5,47.5 125.5,48.5 125.5,49.5C 124.167,49.5 122.833,49.5 121.5,49.5C 121.5,48.5 121.5,47.5 121.5,46.5 Z"/></g>
<g><path style="opacity:1" fill="#818184" d="M 91.5,48.5 C 93.3464,48.2222 94.6798,48.8888 95.5,50.5C 94.3112,51.4287 92.9778,51.762 91.5,51.5C 91.5,50.5 91.5,49.5 91.5,48.5 Z"/></g>
<g><path style="opacity:1" fill="#303034" d="M 84.5,51.5 C 88.2998,51.8194 88.4665,52.8194 85,54.5C 84.5172,53.552 84.3505,52.552 84.5,51.5 Z"/></g>
<g><path style="opacity:1" fill="#454448" d="M 138.5,50.5 C 140.02,54.8441 139.354,55.3441 136.5,52C 136.836,50.9701 137.503,50.4701 138.5,50.5 Z"/></g>
<g><path style="opacity:1" fill="#313135" d="M 78.5,54.5 C 81.0118,55.2162 81.0118,56.2162 78.5,57.5C 77.4376,56.5754 77.4376,55.5754 78.5,54.5 Z"/></g>
<g><path style="opacity:1" fill="#38383c" d="M 113.5,96.5 C 112.504,81.676 112.171,66.676 112.5,51.5C 78.9026,53.9407 58.9026,71.6074 52.5,104.5C 51.8333,109.5 51.1667,114.5 50.5,119.5C 49.3321,83.5187 65.9987,60.6854 100.5,51C 117.099,48.2602 132.432,51.4269 146.5,60.5C 146.167,60.8333 145.833,61.1667 145.5,61.5C 135.953,55.7623 125.62,52.429 114.5,51.5C 113.945,66.4939 113.611,81.4939 113.5,96.5 Z"/></g>
<g><path style="opacity:1" fill="#2f2f33" d="M 143.5,54.5 C 144.995,54.4148 145.995,55.0815 146.5,56.5C 144.604,57.6394 143.604,56.9728 143.5,54.5 Z"/></g>
<g><path style="opacity:1" fill="#39393d" d="M 150.5,58.5 C 153.401,59.1783 153.901,60.5116 152,62.5C 149.988,61.4335 149.488,60.1002 150.5,58.5 Z"/></g>
<g><path style="opacity:1" fill="#343438" d="M 72.5,58.5 C 74.8918,59.7421 74.7251,61.0755 72,62.5C 70.4132,61.154 70.5798,59.8206 72.5,58.5 Z"/></g>
<g><path style="opacity:1" fill="#3e3e41" d="M 168.5,36.5 C 171.978,36.1842 175.312,36.6842 178.5,38C 181.08,41.2559 183.747,44.4225 186.5,47.5C 185.219,50.4474 183.219,52.7807 180.5,54.5C 179.167,53.8333 178.167,52.8333 177.5,51.5C 179.704,46.6241 178.371,43.2908 173.5,41.5C 171.971,41.5288 170.804,42.1955 170,43.5C 171.776,48.4108 173.609,53.4108 175.5,58.5C 175.257,62.1509 173.59,64.9843 170.5,67C 171.025,67.6924 171.692,68.1924 172.5,68.5C 178.49,65.8403 184.156,62.6736 189.5,59C 189.043,58.586 188.709,58.086 188.5,57.5C 189.736,56.6433 191.069,55.9766 192.5,55.5C 196.547,61.7569 200.213,68.2569 203.5,75C 200.709,77.4227 197.709,78.5894 194.5,78.5C 193.323,76.1265 193.99,74.2931 196.5,73C 195.623,70.0725 194.123,67.5725 192,65.5C 189.942,66.1117 188.109,67.1117 186.5,68.5C 187.706,71.0794 189.039,73.5794 190.5,76C 189.335,77.0836 188.002,77.9169 186.5,78.5C 184.833,75.8333 183.167,73.1667 181.5,70.5C 179.32,72.0902 176.987,73.4235 174.5,74.5C 176.424,77.3479 178.091,80.3479 179.5,83.5C 182.555,80.5177 184.555,81.1844 185.5,85.5C 183.222,87.2225 180.722,88.5559 178,89.5C 176.098,87.3732 174.431,85.0398 173,82.5C 172.716,84.8856 171.716,85.5523 170,84.5C 169.607,82.8008 170.107,81.3008 171.5,80C 169.97,76.4393 168.303,72.9393 166.5,69.5C 167.025,68.8076 167.692,68.3076 168.5,68C 166.048,67.7105 163.715,67.0438 161.5,66C 158.039,62.2197 154.705,58.3864 151.5,54.5C 153.331,51.1264 155.997,49.293 159.5,49C 160.167,49.6667 160.833,50.3333 161.5,51C 158.491,56.3909 159.991,60.2242 166,62.5C 169.072,61.5527 170.072,59.5527 169,56.5C 166.215,52.7624 164.382,48.5957 163.5,44C 164.313,40.8579 165.98,38.3579 168.5,36.5 Z"/></g>
<g><path style="opacity:1" fill="#4d4d50" d="M 66.5,63.5 C 69.0414,64.6228 69.0414,65.9561 66.5,67.5C 64.2064,66.3746 64.2064,65.0412 66.5,63.5 Z"/></g>
<g><path style="opacity:1" fill="#353539" d="M 155.5,63.5 C 158.076,63.7218 158.91,65.0551 158,67.5C 156.519,66.5291 155.685,65.1958 155.5,63.5 Z"/></g>
<g><path style="opacity:1" fill="#515154" d="M 161.5,68.5 C 164.085,69.4654 164.585,70.7988 163,72.5C 160.5,71.8424 160,70.5091 161.5,68.5 Z"/></g>
<g><path style="opacity:1" fill="#777778" d="M 83.5,79.5 C 82.8333,79.5 82.5,79.8333 82.5,80.5C 79.7322,77.229 76.7322,74.0623 73.5,71C 77.4807,72.7936 80.8141,75.6269 83.5,79.5 Z"/></g>
<g><path style="opacity:1" fill="#3e3e43" d="M 125.5,83.5 C 124.5,85.1667 123.167,86.5 121.5,87.5C 124.037,81.0656 126.87,74.7323 130,68.5C 129.032,73.5794 127.532,78.5794 125.5,83.5 Z"/></g>
<g><path style="opacity:1" fill="#39393d" d="M 61.5,69.5 C 63.0281,69.5173 63.5281,70.184 63,71.5C 59.1887,72.9662 58.6887,72.2996 61.5,69.5 Z"/></g>
<g><path style="opacity:1" fill="#39393d" d="M 109.5,100.5 C 109.167,101.5 108.5,102.167 107.5,102.5C 102.613,90.669 98.4462,78.669 95,66.5C 100.124,77.7434 104.957,89.0767 109.5,100.5 Z"/></g>
<g><path style="opacity:1" fill="#38383c" d="M 56.5,75.5 C 58.9701,76.3603 59.1368,77.6936 57,79.5C 55.4894,78.436 55.3228,77.1026 56.5,75.5 Z"/></g>
<g><path style="opacity:1" fill="#37373b" d="M 165.5,75.5 C 168.569,75.963 169.069,77.2963 167,79.5C 166.209,78.255 165.709,76.9217 165.5,75.5 Z"/></g>
<g><path style="opacity:1" fill="#8a8a8c" d="M 145.5,80.5 C 148.186,76.6269 151.519,73.7936 155.5,72C 152.568,75.442 149.235,78.2754 145.5,80.5 Z"/></g>
<g><path style="opacity:1" fill="#333337" d="M 52.5,82.5 C 54.0481,82.8212 54.7148,83.8212 54.5,85.5C 53.448,85.6495 52.448,85.4828 51.5,85C 52.2524,84.3292 52.5858,83.4959 52.5,82.5 Z"/></g>
<g><path style="opacity:1" fill="#3e3f42" d="M 27.5,58.5 C 31.4421,58.7541 34.7755,60.2541 37.5,63C 37.2645,63.8732 36.9312,64.7065 36.5,65.5C 26.6796,66.1568 23.8463,70.8234 28,79.5C 32.8017,84.5499 38.3017,85.5499 44.5,82.5C 48.7702,77.4681 48.4368,72.8015 43.5,68.5C 43.9766,67.069 44.6433,65.7357 45.5,64.5C 53.4754,70.1288 54.642,77.1288 49,85.5C 39.5063,92.8144 30.8396,91.8144 23,82.5C 18.9194,75.3183 19.9194,68.985 26,63.5C 26.6077,61.8455 27.1077,60.1789 27.5,58.5 Z"/></g>
<g><path style="opacity:1" fill="#424245" d="M 145.5,80.5 C 141.203,85.2979 136.703,89.9645 132,94.5C 131.667,93.8333 131.333,93.1667 131,92.5C 129.167,96.1667 127.333,99.8333 125.5,103.5C 126,103.833 126.5,104.167 127,104.5C 138.357,100.221 149.857,96.7214 161.5,94C 149.461,98.4017 137.461,102.902 125.5,107.5C 123.55,106.848 122.55,107.848 122.5,110.5C 121.326,111.514 120.66,112.847 120.5,114.5C 119.883,114.611 119.383,114.944 119,115.5C 117.729,114.117 116.229,113.117 114.5,112.5C 115.968,109.722 116.801,106.722 117,103.5C 125.054,92.2864 132.887,80.9531 140.5,69.5C 141.363,68.537 142.03,68.537 142.5,69.5C 138.723,76.375 135.556,83.375 133,90.5C 137.06,86.9296 141.227,83.5962 145.5,80.5 Z"/></g>
<g><path style="opacity:1" fill="#38383b" d="M 49.5,89.5 C 50.5862,89.62 51.2528,90.2867 51.5,91.5C 51.1667,92.1667 50.8333,92.8333 50.5,93.5C 49.5713,92.3112 49.238,90.9778 49.5,89.5 Z"/></g>
<g><path style="opacity:1" fill="#37373b" d="M 173.5,88.5 C 175.94,91.0783 175.606,92.4116 172.5,92.5C 172.433,91.0413 172.766,89.7079 173.5,88.5 Z"/></g>
<g><path style="opacity:1" fill="#343438" d="M 83.5,79.5 C 91.5568,87.5534 99.2235,95.8867 106.5,104.5C 105.833,104.5 105.5,104.833 105.5,105.5C 105.167,105.5 104.833,105.5 104.5,105.5C 97.1667,97.1667 89.8333,88.8333 82.5,80.5C 82.5,79.8333 82.8333,79.5 83.5,79.5 Z"/></g>
<g><path style="opacity:1" fill="#36363a" d="M 47.5,96.5 C 48.5862,96.62 49.2528,97.2867 49.5,98.5C 49.1667,99.1667 48.8333,99.8333 48.5,100.5C 47.5713,99.3112 47.238,97.9778 47.5,96.5 Z"/></g>
<g><path style="opacity:1" fill="#37373b" d="M 103.5,105.5 C 103.5,106.833 102.833,107.5 101.5,107.5C 91.1932,102.347 80.8599,97.1799 70.5,92C 81.6425,95.8964 92.6425,100.396 103.5,105.5 Z"/></g>
<g><path style="opacity:1" fill="#5b5b5d" d="M 174.5,96.5 C 176.912,96.6941 177.912,98.0274 177.5,100.5C 176.5,100.5 175.5,100.5 174.5,100.5C 174.5,99.1667 174.5,97.8333 174.5,96.5 Z"/></g>
<g><path style="opacity:1" fill="#2f2f33" d="M 46.5,104.5 C 47.5862,104.62 48.2528,105.287 48.5,106.5C 48.1667,107.167 47.8333,107.833 47.5,108.5C 46.5713,107.311 46.238,105.978 46.5,104.5 Z"/></g>
<g><path style="opacity:1" fill="#808082" d="M 175.5,103.5 C 176.5,103.5 177.5,103.5 178.5,103.5C 178.5,105.167 178.5,106.833 178.5,108.5C 177.5,108.5 176.5,108.5 175.5,108.5C 175.5,106.833 175.5,105.167 175.5,103.5 Z"/></g>
<g><path style="opacity:1" fill="#bfbfbf" d="M 103.5,105.5 C 103.833,105.5 104.167,105.5 104.5,105.5C 104.833,105.5 105.167,105.5 105.5,105.5C 107.367,106.76 108.7,108.427 109.5,110.5C 108.115,109.386 106.615,108.386 105,107.5C 104.148,108.571 103.315,109.571 102.5,110.5C 89.5,109.167 76.5,109.167 63.5,110.5C 60.3508,110.789 57.3508,110.289 54.5,109C 70.3387,108.831 86.0054,108.331 101.5,107.5C 102.833,107.5 103.5,106.833 103.5,105.5 Z"/></g>
<g><path style="opacity:1" fill="#2f2f33" d="M 63.5,110.5 C 76.5,109.167 89.5,109.167 102.5,110.5C 89.5702,111.332 76.5702,111.332 63.5,110.5 Z"/></g>
<g><path style="opacity:1" fill="#9d9d9f" d="M 52.5,104.5 C 52.5,109.833 52.5,115.167 52.5,120.5C 51.6618,120.842 51.3284,121.508 51.5,122.5C 50.596,121.791 50.2627,120.791 50.5,119.5C 51.1667,114.5 51.8333,109.5 52.5,104.5 Z"/></g>
<g><path style="opacity:1" fill="#2b2b2f" d="M 122.5,110.5 C 135.164,110.9 147.831,111.233 160.5,111.5C 154.342,112.166 148.009,112.5 141.5,112.5C 134.796,112.496 128.463,111.83 122.5,110.5 Z"/></g>
<g><path style="opacity:1" fill="#c0c0c1" d="M 122.5,110.5 C 128.463,111.83 134.796,112.496 141.5,112.5C 148.009,112.5 154.342,112.166 160.5,111.5C 164.534,111.505 168.534,111.838 172.5,112.5C 172.5,112.833 172.5,113.167 172.5,113.5C 155.658,113.17 138.992,113.503 122.5,114.5C 121.833,114.5 121.167,114.5 120.5,114.5C 120.66,112.847 121.326,111.514 122.5,110.5 Z"/></g>
<g><path style="opacity:1" fill="#edd42a" d="M 140.5,69.5 C 132.887,80.9531 125.054,92.2864 117,103.5C 116.801,106.722 115.968,109.722 114.5,112.5C 115.75,114.154 117.084,115.821 118.5,117.5C 117.094,117.973 116.427,118.973 116.5,120.5C 115.833,120.5 115.5,120.833 115.5,121.5C 113.833,122.5 112.5,123.833 111.5,125.5C 110.833,125.5 110.5,125.833 110.5,126.5C 107.119,128.88 104.453,131.88 102.5,135.5C 100.833,136.5 99.5,137.833 98.5,139.5C 92.5327,145.637 86.6994,151.97 81,158.5C 80.5357,157.906 80.369,157.239 80.5,156.5C 89.2238,144.742 97.7238,132.742 106,120.5C 106.982,117.071 108.148,113.738 109.5,110.5C 108.7,108.427 107.367,106.76 105.5,105.5C 105.5,104.833 105.833,104.5 106.5,104.5C 107.338,104.158 107.672,103.492 107.5,102.5C 108.5,102.167 109.167,101.5 109.5,100.5C 111.167,99.5 112.5,98.1667 113.5,96.5C 116.881,94.1203 119.547,91.1203 121.5,87.5C 123.167,86.5 124.5,85.1667 125.5,83.5C 130.318,78.5749 135.151,73.5749 140,68.5C 140.399,68.7284 140.565,69.0618 140.5,69.5 Z"/></g>
<g><path style="opacity:1" fill="#3f3e40" d="M 112.5,108.5 C 113.376,108.369 114.043,108.702 114.5,109.5C 113.876,111.754 112.543,113.421 110.5,114.5C 110.167,114.167 109.833,113.833 109.5,113.5C 110.26,111.64 111.26,109.973 112.5,108.5 Z"/></g>
<g><path style="opacity:1" fill="#555558" d="M 175.5,111.5 C 176.5,111.5 177.5,111.5 178.5,111.5C 178.5,112.833 178.5,114.167 178.5,115.5C 177.5,115.5 176.5,115.5 175.5,115.5C 175.5,114.167 175.5,112.833 175.5,111.5 Z"/></g>
<g><path style="opacity:1" fill="#7e7d80" d="M 45.5,112.5 C 46.5,112.5 47.5,112.5 48.5,112.5C 48.5,113.833 48.5,115.167 48.5,116.5C 47.5,116.5 46.5,116.5 45.5,116.5C 45.5,115.167 45.5,113.833 45.5,112.5 Z"/></g>
<g><path style="opacity:1" fill="#565659" d="M 46.5,119.5 C 47.5,119.5 48.5,119.5 49.5,119.5C 49.5,120.833 49.5,122.167 49.5,123.5C 48.5,123.5 47.5,123.5 46.5,123.5C 46.5,122.167 46.5,120.833 46.5,119.5 Z"/></g>
<g><path style="opacity:1" fill="#2c2c30" d="M 175.5,119.5 C 176.586,119.62 177.253,120.287 177.5,121.5C 177.167,122.167 176.833,122.833 176.5,123.5C 175.571,122.311 175.238,120.978 175.5,119.5 Z"/></g>
<g><path style="opacity:1" fill="#f9f9f9" d="M 114.5,112.5 C 116.229,113.117 117.729,114.117 119,115.5C 119.383,114.944 119.883,114.611 120.5,114.5C 123.19,117.365 126.523,119.531 130.5,121C 139.333,124.833 148.167,128.667 157,132.5C 157.5,132.333 158,132.167 158.5,132C 146.596,125.881 134.596,120.048 122.5,114.5C 138.992,113.503 155.658,113.17 172.5,113.5C 169.586,145.249 152.586,164.749 121.5,172C 118.183,172.498 114.85,172.665 111.5,172.5C 111.794,156.654 111.794,140.988 111.5,125.5C 112.5,123.833 113.833,122.5 115.5,121.5C 120.987,135.145 126.487,148.812 132,162.5C 128.119,148.024 122.952,134.024 116.5,120.5C 116.427,118.973 117.094,117.973 118.5,117.5C 117.084,115.821 115.75,114.154 114.5,112.5 Z"/></g>
<g><path style="opacity:1" fill="#3c3c40" d="M 120.5,114.5 C 121.167,114.5 121.833,114.5 122.5,114.5C 134.596,120.048 146.596,125.881 158.5,132C 158,132.167 157.5,132.333 157,132.5C 148.167,128.667 139.333,124.833 130.5,121C 126.523,119.531 123.19,117.365 120.5,114.5 Z"/></g>
<g><path style="opacity:1" fill="#3f3f43" d="M 116.5,120.5 C 122.952,134.024 128.119,148.024 132,162.5C 126.487,148.812 120.987,135.145 115.5,121.5C 115.5,120.833 115.833,120.5 116.5,120.5 Z"/></g>
<g><path style="opacity:1" fill="#424347" d="M 109.5,110.5 C 108.148,113.738 106.982,117.071 106,120.5C 97.7238,132.742 89.2238,144.742 80.5,156.5C 85.2629,147.649 89.4296,138.649 93,129.5C 87.9122,135.62 82.0788,140.454 75.5,144C 82.0835,137.079 88.9168,130.579 96,124.5C 97.6263,121.942 98.6263,119.275 99,116.5C 88.2806,120.63 77.4472,124.13 66.5,127C 78.0532,122.147 89.7199,117.48 101.5,113C 102.252,112.329 102.586,111.496 102.5,110.5C 103.315,109.571 104.148,108.571 105,107.5C 106.615,108.386 108.115,109.386 109.5,110.5 Z"/></g>
<g><path style="opacity:1" fill="#38383c" d="M 173.5,127.5 C 176.684,127.332 177.184,128.666 175,131.5C 173.812,130.437 173.312,129.103 173.5,127.5 Z"/></g>
<g><path style="opacity:1" fill="#727275" d="M 48.5,127.5 C 50.1207,127.787 51.1207,128.787 51.5,130.5C 50.675,131.386 49.675,131.719 48.5,131.5C 48.5,130.167 48.5,128.833 48.5,127.5 Z"/></g>
<g><path style="opacity:1" fill="#404044" d="M 118.5,117.5 C 121.731,119.22 124.564,121.553 127,124.5C 133.333,131.5 139.667,138.5 146,145.5C 146.667,146.167 146.667,146.833 146,147.5C 137,138.5 128,129.5 119,120.5C 118.517,119.552 118.351,118.552 118.5,117.5 Z"/></g>
<g><path style="opacity:1" fill="#3d3d41" d="M 51.5,134.5 C 53.4759,135.427 53.8092,136.76 52.5,138.5C 50.3576,137.563 50.0243,136.23 51.5,134.5 Z"/></g>
<g><path style="opacity:1" fill="#454548" d="M 171.5,134.5 C 172.586,134.62 173.253,135.287 173.5,136.5C 172.965,138.916 171.965,139.083 170.5,137C 171.252,136.329 171.586,135.496 171.5,134.5 Z"/></g>
<g><path style="opacity:1" fill="#414145" d="M 102.5,135.5 C 100.659,140.516 98.3256,145.182 95.5,149.5C 96.0991,146.037 97.0991,142.704 98.5,139.5C 99.5,137.833 100.833,136.5 102.5,135.5 Z"/></g>
<g><path style="opacity:1" fill="#3b3b3e" d="M 54.5,141.5 C 56.4759,142.427 56.8092,143.76 55.5,145.5C 53.8241,144.272 53.4908,142.939 54.5,141.5 Z"/></g>
<g><path style="opacity:1" fill="#353539" d="M 52.5,120.5 C 55.1126,137.402 63.1126,151.068 76.5,161.5C 76.3333,161.833 76.1667,162.167 76,162.5C 62.481,152.465 54.3143,139.132 51.5,122.5C 51.3284,121.508 51.6618,120.842 52.5,120.5 Z"/></g>
<g><path style="opacity:1" fill="#39393d" d="M 168.5,141.5 C 170.97,142.36 171.137,143.694 169,145.5C 167.232,144.318 167.065,142.985 168.5,141.5 Z"/></g>
<g><path style="opacity:1" fill="#47474a" d="M 57.5,148.5 C 59.3464,148.222 60.6798,148.889 61.5,150.5C 59.1671,151.941 57.8338,151.275 57.5,148.5 Z"/></g>
<g><path style="opacity:1" fill="#303033" d="M 164.5,148.5 C 167.012,149.216 167.012,150.216 164.5,151.5C 163.438,150.575 163.438,149.575 164.5,148.5 Z"/></g>
<g><path style="opacity:1" fill="#414145" d="M 95.5,149.5 C 95.5086,151.308 95.0086,152.975 94,154.5C 93.4014,152.465 93.9014,150.799 95.5,149.5 Z"/></g>
<g><path style="opacity:1" fill="#3b3b3f" d="M 63.5,153.5 C 65.4759,154.427 65.8092,155.76 64.5,157.5C 62.3576,156.563 62.0243,155.23 63.5,153.5 Z"/></g>
<g><path style="opacity:1" fill="#303033" d="M 159.5,154.5 C 162.012,155.216 162.012,156.216 159.5,157.5C 158.438,156.575 158.438,155.575 159.5,154.5 Z"/></g>
<g><path style="opacity:1" fill="#3f3f43" d="M 41.5,152.5 C 45.2733,152.263 48.9399,152.763 52.5,154C 56.297,158.448 59.9637,162.948 63.5,167.5C 60.8369,169.992 58.0036,172.326 55,174.5C 53.5362,173.541 52.7028,172.208 52.5,170.5C 55.6385,166.024 54.9718,162.191 50.5,159C 41.6413,157.865 37.1413,161.698 37,170.5C 39.3255,174.51 42.6588,175.51 47,173.5C 48.353,174.685 49.5197,176.019 50.5,177.5C 46.0436,181.302 41.3769,181.468 36.5,178C 27.4445,167.443 29.1112,158.943 41.5,152.5 Z"/></g>
<g><path style="opacity:1" fill="#3e3e42" d="M 68.5,159.5 C 69.9953,159.415 70.9953,160.081 71.5,161.5C 68.6232,162.911 67.6232,162.244 68.5,159.5 Z"/></g>
<g><path style="opacity:1" fill="#3f3f42" d="M 154.5,159.5 C 156.892,160.742 156.725,162.075 154,163.5C 152.07,161.923 152.237,160.59 154.5,159.5 Z"/></g>
<g><path style="opacity:1" fill="#2f2f33" d="M 74.5,164.5 C 75.9953,164.415 76.9953,165.081 77.5,166.5C 75.6043,167.639 74.6043,166.973 74.5,164.5 Z"/></g>
<g><path style="opacity:1" fill="#47474b" d="M 147.5,164.5 C 149.355,164.272 150.188,164.939 150,166.5C 147.192,167.86 146.359,167.193 147.5,164.5 Z"/></g>
<g><path style="opacity:1" fill="#39393d" d="M 81.5,168.5 C 83.9728,168.604 84.6394,169.604 83.5,171.5C 81.1286,171.108 80.4619,170.108 81.5,168.5 Z"/></g>
<g><path style="opacity:1" fill="#38383c" d="M 110.5,126.5 C 110.5,125.833 110.833,125.5 111.5,125.5C 111.794,140.988 111.794,156.654 111.5,172.5C 114.85,172.665 118.183,172.498 121.5,172C 152.586,164.749 169.586,145.249 172.5,113.5C 172.5,113.167 172.5,112.833 172.5,112.5C 172.302,92.1038 164.135,75.7705 148,63.5C 147.333,62.8333 147.333,62.1667 148,61.5C 172.05,80.6597 179.383,104.993 170,134.5C 156.402,163.554 133.568,176.387 101.5,173C 92.6671,171.613 84.6671,168.279 77.5,163C 83.8005,166.135 90.4672,168.802 97.5,171C 101.44,172.015 105.44,172.515 109.5,172.5C 110.29,157.18 110.623,141.847 110.5,126.5 Z"/></g>
<g><path style="opacity:1" fill="#3e3e42" d="M 140.5,168.5 C 142.355,168.272 143.188,168.939 143,170.5C 140.366,171.692 139.532,171.026 140.5,168.5 Z"/></g>
<g><path style="opacity:1" fill="#414145" d="M 133.5,171.5 C 135.355,171.272 136.188,171.939 136,173.5C 133.366,174.692 132.532,174.026 133.5,171.5 Z"/></g>
<g><path style="opacity:1" fill="#3d3d41" d="M 88.5,171.5 C 89.9953,171.415 90.9953,172.081 91.5,173.5C 88.6232,174.911 87.6232,174.244 88.5,171.5 Z"/></g>
<g><path style="opacity:1" fill="#2e2e32" d="M 95.5,173.5 C 99.2965,174.911 99.2965,175.911 95.5,176.5C 95.5,175.5 95.5,174.5 95.5,173.5 Z"/></g>
<g><path style="opacity:1" fill="#4e4e51" d="M 126.5,173.5 C 127.5,173.5 128.5,173.5 129.5,173.5C 129.5,174.5 129.5,175.5 129.5,176.5C 126.433,176.879 125.433,175.879 126.5,173.5 Z"/></g>
<g><path style="opacity:1" fill="#3e3f42" d="M 63.5,172.5 C 78.4117,171.566 84.5784,178.232 82,192.5C 75.7794,202.732 67.9461,204.065 58.5,196.5C 52.0542,186.888 53.7209,178.888 63.5,172.5 Z"/></g>
<g><path style="opacity:1" fill="#2e2e32" d="M 102.5,175.5 C 103.978,175.238 105.311,175.571 106.5,176.5C 105.833,176.833 105.167,177.167 104.5,177.5C 103.287,177.253 102.62,176.586 102.5,175.5 Z"/></g>
<g><path style="opacity:1" fill="#25252a" d="M 118.5,175.5 C 119.675,175.281 120.675,175.614 121.5,176.5C 119.948,177.798 118.948,177.465 118.5,175.5 Z"/></g>
<g><path style="opacity:1" fill="#fbfbfb" d="M 66.5,177.5 C 76.096,177.253 79.2627,181.586 76,190.5C 73.4586,195.069 69.6253,196.569 64.5,195C 60.7885,192.487 59.6218,188.987 61,184.5C 62.6665,182.004 64.4998,179.671 66.5,177.5 Z"/></g>
<g><path style="opacity:1" fill="#5e5e61" d="M 110.5,175.5 C 111.833,175.5 113.167,175.5 114.5,175.5C 114.5,176.5 114.5,177.5 114.5,178.5C 113.167,178.5 111.833,178.5 110.5,178.5C 110.5,177.5 110.5,176.5 110.5,175.5 Z"/></g>
<g><path style="opacity:1" fill="#3e3e41" d="M 172.5,153.5 C 176.001,154.328 178.668,156.328 180.5,159.5C 178.882,163.434 176.882,163.934 174.5,161C 171.424,162.024 168.758,164.024 166.5,167C 168.263,170.373 170.597,171.039 173.5,169C 170.818,166.683 170.985,164.516 174,162.5C 177.016,165.349 179.85,168.349 182.5,171.5C 181.062,174.823 179.229,175.156 177,172.5C 175.378,175.159 176.211,177.159 179.5,178.5C 181.984,176.517 184.317,174.35 186.5,172C 185.167,170.667 183.833,169.333 182.5,168C 183.667,166.833 184.833,165.667 186,164.5C 188.35,166.683 190.517,169.016 192.5,171.5C 187.553,177.95 182.053,183.95 176,189.5C 172.923,187.698 172.757,185.698 175.5,183.5C 171.348,179.849 167.348,176.016 163.5,172C 158.637,172.366 157.637,174.533 160.5,178.5C 159.653,179.845 158.487,180.845 157,181.5C 156.059,179.939 154.892,178.605 153.5,177.5C 150.671,178.747 148.005,180.247 145.5,182C 146.542,183.918 147.708,185.751 149,187.5C 151.848,186.567 152.014,185.067 149.5,183C 151.004,181.212 152.671,180.712 154.5,181.5C 156.039,184.746 157.706,187.912 159.5,191C 158.034,191.635 156.7,192.469 155.5,193.5C 154.351,190.571 152.685,190.071 150.5,192C 151.5,193.667 152.5,195.333 153.5,197C 156.77,196.537 159.77,195.204 162.5,193C 159.329,189.886 159.829,187.719 164,186.5C 166.721,188.937 168.054,191.937 168,195.5C 161.087,199.039 154.254,202.706 147.5,206.5C 144.584,203.863 144.917,201.697 148.5,200C 145.879,194.588 142.879,189.421 139.5,184.5C 138.264,185.246 136.93,185.579 135.5,185.5C 135.833,187.5 136.167,189.5 136.5,191.5C 134.856,191.286 133.356,191.62 132,192.5C 130.991,190.975 130.491,189.308 130.5,187.5C 127.482,187.704 124.482,188.037 121.5,188.5C 121.993,190.806 122.326,193.139 122.5,195.5C 123.5,195.5 124.5,195.5 125.5,195.5C 125.5,194.167 125.5,192.833 125.5,191.5C 126.822,191.67 127.989,191.337 129,190.5C 130.536,194.346 131.369,198.346 131.5,202.5C 129.856,202.286 128.356,202.62 127,203.5C 126.51,202.207 126.343,200.873 126.5,199.5C 125.5,199.5 124.5,199.5 123.5,199.5C 122.576,203.836 124.243,206.336 128.5,207C 129.337,208.011 129.67,209.178 129.5,210.5C 124.47,210.98 119.47,211.647 114.5,212.5C 114.5,210.833 114.5,209.167 114.5,207.5C 115.833,207.5 117.167,207.5 118.5,207.5C 117.779,201.783 116.779,196.116 115.5,190.5C 114.009,189.756 112.509,189.09 111,188.5C 110.503,190.81 110.337,193.143 110.5,195.5C 104.86,195.871 103.193,193.537 105.5,188.5C 102.455,188.492 99.4552,188.159 96.5,187.5C 96.0074,189.806 95.6741,192.139 95.5,194.5C 96.5,194.5 97.5,194.5 98.5,194.5C 98.5,193.5 98.5,192.5 98.5,191.5C 100.971,191.233 102.638,192.233 103.5,194.5C 102.698,197.449 102.364,200.449 102.5,203.5C 100.396,203.799 98.396,203.466 96.5,202.5C 97.8793,201.137 97.7126,200.137 96,199.5C 92.5806,202.145 92.7473,204.478 96.5,206.5C 97.4287,207.689 97.762,209.022 97.5,210.5C 92.8333,209.833 88.1667,209.167 83.5,208.5C 83.5,207.167 83.5,205.833 83.5,204.5C 85.451,204.773 86.951,204.107 88,202.5C 88.7047,197.976 89.5381,193.476 90.5,189C 88.3651,187.007 87.3651,184.507 87.5,181.5C 95.3098,182.895 103.143,184.228 111,185.5C 118.797,184.074 126.63,182.907 134.5,182C 142.324,178.255 149.991,174.255 157.5,170C 162.337,164.33 167.337,158.83 172.5,153.5 Z"/></g>
</svg>
